<?xml version="1.0" standalone="no"?>
<!DOCTYPE svg PUBLIC "-//W3C//DTD SVG 20010904//EN"
 "http://www.w3.org/TR/2001/REC-SVG-20010904/DTD/svg10.dtd">
<svg version="1.0" xmlns="http://www.w3.org/2000/svg"
 width="3840.000000pt" height="2400.000000pt" viewBox="0 0 3840.000000 2400.000000"
 preserveAspectRatio="xMidYMid meet">

<g transform="translate(0.000000,2400.000000) scale(0.100000,-0.100000)"
fill="#ffffff;" stroke="white">
<path d="M14477 20343 c-221 -214 -337 -334 -337 -348 0 -4 -28 -39 -63 -79
-324 -366 -660 -855 -917 -1334 -1019 -1898 -1128 -4199 -296 -6195 81 -193
323 -673 446 -885 330 -568 811 -1180 1251 -1592 587 -550 1147 -940 1844
-1281 888 -436 1817 -679 2823 -740 249 -15 846 -6 1082 16 944 87 1793 325
2625 735 429 212 716 389 1142 707 493 368 958 819 1351 1311 162 203 457 621
480 680 3 9 36 66 72 127 108 178 193 339 324 607 718 1473 894 3228 486 4858
-284 1139 -831 2172 -1620 3065 -149 168 -562 570 -579 563 -5 -2 -69 -77
-142 -168 -73 -91 -141 -172 -150 -180 -23 -21 -559 -688 -559 -696 0 -4 -101
-133 -225 -286 l-225 -280 139 -144 c135 -139 311 -336 311 -347 0 -3 48 -68
106 -144 651 -844 1025 -1877 1063 -2939 26 -747 -90 -1426 -362 -2114 -57
-144 -255 -556 -309 -643 l-24 -38 -375 368 c-353 347 -469 459 -839 817 -85
83 -216 209 -290 281 -107 104 -628 607 -1342 1295 -44 43 -74 107 -708 1540
-364 822 -666 1502 -671 1510 -5 8 -8 -1025 -8 -2305 l-1 -2320 791 -765 c435
-421 798 -769 807 -775 24 -14 562 -534 931 -899 l313 -310 -28 -23 c-16 -13
-94 -68 -174 -122 -1055 -714 -2346 -1020 -3630 -860 -861 107 -1669 420
-2393 927 l-107 75 237 236 c288 285 799 781 1018 986 88 82 483 462 878 843
l717 694 0 2319 c0 1275 -2 2319 -4 2319 -1 0 -304 -680 -672 -1511 l-669
-1510 -1448 -1400 c-797 -770 -1453 -1399 -1459 -1397 -6 2 -44 67 -84 143
-338 635 -523 1253 -596 1990 -20 198 -16 739 6 950 69 657 240 1246 531 1820
249 492 538 895 921 1285 l162 165 -511 632 c-681 842 -797 983 -806 983 -5 0
-110 -98 -234 -217z"/>
<path d="M880 5645 c-288 -58 -522 -270 -575 -521 -22 -103 -22 -1945 0 -2049
37 -176 177 -350 354 -440 l34 -17 333 333 334 334 0 772 0 773 1000 0 1000 0
0 -735 0 -735 -42 -1 c-24 0 -356 0 -739 -1 l-696 0 -414 -414 -414 -414 1370
2 1370 3 80 23 c238 69 416 207 502 389 62 129 62 138 62 1078 l0 850 -257
390 -258 390 -1489 2 c-1194 1 -1503 -1 -1555 -12z"/>
<path d="M4444 5513 c51 -82 95 -156 99 -165 7 -20 696 -1118 712 -1134 5 -6
246 -387 535 -847 l525 -836 381 0 381 -1 543 833 c299 457 551 841 560 852
20 23 930 1414 937 1433 4 9 -119 12 -593 12 l-599 0 -453 -723 c-520 -829
-725 -1153 -734 -1162 -3 -3 -62 86 -132 199 -69 112 -147 238 -174 278 -27
40 -232 373 -457 741 l-408 667 -608 0 -608 0 93 -147z"/>
<path d="M9337 5279 l-267 -382 0 -1183 0 -1184 1665 0 1665 0 0 415 0 415
-1130 0 -1130 0 0 190 0 190 765 0 765 0 0 360 0 360 -762 2 -763 3 -3 188 -2
187 1130 0 1130 0 0 410 0 410 -1398 0 -1397 0 -268 -381z"/>
<path d="M12870 4095 l0 -1565 535 0 535 0 0 1160 0 1160 835 0 835 0 0 -255
0 -255 -595 0 -595 0 1 -322 0 -323 652 -582 652 -583 744 0 c414 0 741 4 736
9 -6 4 -307 266 -670 581 -363 315 -661 577 -663 582 -2 4 20 8 50 8 126 1
318 55 442 124 84 47 181 137 224 208 59 100 64 147 60 653 -4 383 -7 459 -21
508 -61 210 -207 344 -463 424 l-89 28 -1602 3 -1603 2 0 -1565z"/>
<path d="M16849 5638 c5 -13 149 -340 321 -728 172 -388 479 -1082 683 -1543
l370 -837 359 2 359 3 352 772 c193 425 355 769 358 765 4 -4 158 -351 342
-772 l336 -765 387 0 387 0 366 840 c202 462 369 845 373 850 3 6 144 327 313
715 169 388 309 708 311 712 3 5 -230 8 -519 8 l-523 0 -299 -707 c-164 -389
-314 -741 -333 -781 l-34 -75 -47 99 c-26 55 -182 406 -346 781 l-300 683
-374 -3 -373 -2 -304 -689 c-167 -380 -322 -728 -345 -775 l-41 -86 -12 30
c-7 17 -25 55 -39 85 -19 42 -581 1368 -604 1428 -4 9 -127 12 -569 12 l-564
0 9 -22z"/>
<path d="M23627 5493 c-62 -93 -280 -414 -483 -715 -203 -301 -452 -670 -554
-820 -102 -150 -360 -533 -573 -851 l-388 -577 589 0 588 0 466 723 c256 397
467 729 470 738 7 19 138 222 148 229 3 3 51 74 105 158 54 84 101 150 105
145 4 -4 49 -73 99 -152 51 -79 97 -149 104 -156 7 -7 253 -389 547 -849 l535
-835 609 -1 608 0 -18 27 c-10 16 -256 393 -547 838 -291 446 -535 817 -543
825 -7 9 -222 335 -477 725 l-464 710 -406 3 -406 2 -114 -167z"/>
<path d="M25760 5245 l0 -415 690 0 690 0 0 -1150 0 -1150 535 0 535 0 0 1150
0 1150 548 0 547 0 265 407 c146 223 267 410 268 415 2 4 -915 8 -2037 8
l-2041 0 0 -415z"/>
<path d="M29998 5142 l-338 -517 0 -745 c0 -827 -2 -799 67 -940 28 -58 57
-96 128 -166 82 -83 102 -97 205 -147 207 -100 72 -92 1560 -92 l1305 0 88 28
c93 29 195 77 264 124 62 42 186 186 222 256 61 120 64 141 68 505 l5 332
-536 0 -536 0 0 -210 0 -210 -50 -1 c-27 0 -414 0 -860 0 -445 0 -821 0 -835
0 l-25 1 0 735 0 735 885 0 885 0 0 -185 0 -185 535 0 535 0 0 273 c0 149 -5
302 -10 339 -22 155 -74 255 -193 377 -79 80 -195 144 -332 183 l-80 22 -1310
3 -1310 3 -337 -518z"/>
<path d="M34020 4095 l0 -1565 535 0 535 0 0 605 0 605 970 0 970 0 0 -605 0
-605 535 0 535 0 0 1565 0 1565 -535 0 -535 0 -2 -547 -3 -548 -967 -3 -968
-2 0 550 0 550 -535 0 -535 0 0 -1565z"/>
</g>
</svg>
